<svg width="30" height="29" viewBox="0 0 30 29" fill="none" xmlns="http://www.w3.org/2000/svg">
<g filter="url(#filter0_d_80_38)">
<path fill-rule="evenodd" clip-rule="evenodd" d="M14.8866 14.414L14.9995 14.414L15.2521 14.4149C17.1827 14.4276 21.5946 14.6226 21.5946 17.613C21.5946 20.5837 17.3365 20.7775 15.2822 20.7901L14.5211 20.7901C12.5904 20.7774 8.1776 20.5826 8.1776 17.596C8.1776 14.6215 12.5904 14.4275 14.5211 14.4149L14.7737 14.414C14.8129 14.414 14.8505 14.414 14.8866 14.414ZM14.8866 15.914C12.5106 15.914 9.6776 16.206 9.6776 17.596C9.6776 18.9545 12.3415 19.2722 14.6694 19.2902L14.8866 19.291C17.2626 19.291 20.0946 19 20.0946 17.613C20.0946 16.209 17.2626 15.914 14.8866 15.914ZM22.8402 14.0082C25.2632 14.3712 25.7722 15.5092 25.7722 16.4002C25.7722 16.9442 25.5582 17.9372 24.1282 18.4822C24.0402 18.5152 23.9502 18.5312 23.8612 18.5312C23.5592 18.5312 23.2742 18.3472 23.1602 18.0482C23.0122 17.6612 23.2072 17.2272 23.5942 17.0802C24.2722 16.8222 24.2722 16.5372 24.2722 16.4002C24.2722 15.9622 23.7152 15.6562 22.6172 15.4922C22.2082 15.4302 21.9252 15.0492 21.9862 14.6382C22.0472 14.2282 22.4272 13.9552 22.8402 14.0082ZM7.786 14.6382C7.847 15.0492 7.564 15.4302 7.155 15.4922C6.057 15.6562 5.5 15.9622 5.5 16.4002C5.5 16.5372 5.5 16.8212 6.179 17.0802C6.566 17.2272 6.761 17.6612 6.613 18.0482C6.499 18.3472 6.214 18.5312 5.912 18.5312C5.823 18.5312 5.733 18.5152 5.645 18.4822C4.214 17.9362 4 16.9432 4 16.4002C4 15.5102 4.509 14.3712 6.933 14.0082C7.346 13.9562 7.724 14.2282 7.786 14.6382ZM14.8866 4C17.4066 4 19.4556 6.05 19.4556 8.569C19.4556 11.088 17.4066 13.138 14.8866 13.138H14.8596C13.6396 13.134 12.4966 12.656 11.6406 11.792C10.7826 10.929 10.3136 9.783 10.3186 8.566C10.3186 6.05 12.3676 4 14.8866 4ZM14.8866 5.5C13.1946 5.5 11.8186 6.877 11.8186 8.569C11.8156 9.389 12.1296 10.156 12.7046 10.735C13.2796 11.314 14.0456 11.635 14.8616 11.638L14.8866 12.388V11.638C16.5786 11.638 17.9556 10.262 17.9556 8.569C17.9556 6.877 16.5786 5.5 14.8866 5.5ZM21.0756 4.9795C22.8336 5.2685 24.1106 6.7725 24.1106 8.5555C24.1066 10.3505 22.7656 11.8905 20.9906 12.1395C20.9556 12.1445 20.9206 12.1465 20.8866 12.1465C20.5186 12.1465 20.1976 11.8755 20.1446 11.5005C20.0876 11.0895 20.3726 10.7105 20.7836 10.6535C21.8236 10.5075 22.6086 9.6055 22.6106 8.5535C22.6106 7.5105 21.8626 6.6285 20.8316 6.4595C20.4236 6.3925 20.1466 6.0065 20.2136 5.5975C20.2816 5.1885 20.6646 4.9145 21.0756 4.9795ZM9.5596 5.5975C9.6266 6.0065 9.3496 6.3925 8.9416 6.4595C7.9106 6.6285 7.1626 7.5105 7.1626 8.5555C7.1646 9.6055 7.9496 10.5085 8.9886 10.6535C9.3996 10.7105 9.6846 11.0895 9.6276 11.5005C9.5746 11.8755 9.2536 12.1465 8.8856 12.1465C8.8516 12.1465 8.8166 12.1445 8.7816 12.1395C7.0066 11.8905 5.6666 10.3505 5.6626 8.5575C5.6626 6.7725 6.9396 5.2685 8.6976 4.9795C9.1186 4.9135 9.4916 5.1905 9.5596 5.5975Z" fill="#424242"/>
</g>
<defs>
<filter id="filter0_d_80_38" x="-1" y="0" width="32" height="32" filterUnits="userSpaceOnUse" color-interpolation-filters="sRGB">
<feFlood flood-opacity="0" result="BackgroundImageFix"/>
<feColorMatrix in="SourceAlpha" type="matrix" values="0 0 0 0 0 0 0 0 0 0 0 0 0 0 0 0 0 0 127 0" result="hardAlpha"/>
<feOffset dy="4"/>
<feGaussianBlur stdDeviation="2"/>
<feComposite in2="hardAlpha" operator="out"/>
<feColorMatrix type="matrix" values="0 0 0 0 0 0 0 0 0 0 0 0 0 0 0 0 0 0 0.25 0"/>
<feBlend mode="normal" in2="BackgroundImageFix" result="effect1_dropShadow_80_38"/>
<feBlend mode="normal" in="SourceGraphic" in2="effect1_dropShadow_80_38" result="shape"/>
</filter>
</defs>
</svg>
