<svg width="60" height="60" viewBox="0 0 60 60" fill="none" xmlns="http://www.w3.org/2000/svg">
<g clip-path="url(#clip0_24_174)">
<path d="M55.5 14.2501L45.75 4.50006C45.5275 4.25758 45.2571 4.06398 44.9558 3.93154C44.6546 3.7991 44.3291 3.73071 44 3.73071C43.6709 3.73071 43.3454 3.7991 43.0442 3.93154C42.7429 4.06398 42.4725 4.25758 42.25 4.50006L36.75 10.0001L50 23.2501L55.5 17.7501C55.7425 17.5276 55.9361 17.2571 56.0685 16.9559C56.201 16.6546 56.2694 16.3291 56.2694 16.0001C56.2694 15.671 56.201 15.3455 56.0685 15.0442C55.9361 14.743 55.7425 14.4725 55.5 14.2501ZM26.75 20.0001L23.25 23.5001L19.75 27.0001L16.25 30.5001L4.5 42.2501C4.02896 42.7116 3.75939 43.3406 3.75 44.0001V53.7501C3.75 54.4131 4.01339 55.049 4.48223 55.5178C4.95107 55.9867 5.58696 56.2501 6.25 56.2501H16C16.6594 56.2407 17.2884 55.9711 17.75 55.5001L30.625 42.6251L34.125 39.1251L35.375 37.8751L38.875 34.3751L46.375 26.8751L33.125 13.6251L26.75 20.0001Z" fill="#D7DE27"/>
<path d="M11.2499 3.75C9.47227 3.76836 7.74235 4.32778 6.29052 5.35377C4.83869 6.37976 3.73382 7.82365 3.12301 9.49319C2.5122 11.1627 2.42443 12.9787 2.87139 14.6994C3.31834 16.4201 4.27882 17.9638 5.62494 19.125L14.4999 26.875L25.7499 15.625L17.9999 6.875C17.2048 5.94906 16.2295 5.19454 15.1336 4.65732C14.0377 4.1201 12.8439 3.8114 11.6249 3.75H11.2499Z" fill="#D7DE27" fill-opacity="0.5"/>
<path d="M42.5 35.875L34.75 43.5L37.5 46.125C37.4545 47.4663 37.6863 48.8025 38.181 50.05C38.6757 51.2975 39.4226 52.4295 40.375 53.375C43.25 55.75 47.625 56.25 51.125 56.25C54.625 56.25 55.875 55.875 56.375 55.875C56.875 55.875 57.5 55.125 57.5 54.875C57.5 54.625 54.625 53.25 54 50.375C53.375 47.5 54.875 43.5 51.75 40.625C51.0709 39.9686 50.2681 39.4538 49.3883 39.1104C48.5085 38.7671 47.5692 38.6021 46.625 38.625H45.125L42.5 35.875Z" fill="#D7DE27" fill-opacity="0.5"/>
</g>
<defs>
<clipPath id="clip0_24_174">
<rect width="60" height="60" fill="white"/>
</clipPath>
</defs>
</svg>
