<svg width="61" height="61" viewBox="0 0 61 61" fill="none" xmlns="http://www.w3.org/2000/svg">
<path d="M48.2917 24.8522V38.125M12.7083 38.125V24.8505M53.375 30.4994L39.5656 15.158C36.4249 11.6688 34.8546 9.9243 33.0051 9.28024C31.3809 8.71457 29.613 8.71469 27.9886 9.28062C26.1393 9.92493 24.5693 11.6697 21.4291 15.1593L7.625 30.4994M7.625 50.8455C7.625 50.8455 9.38948 48.0009 12.2 48.316C15.4045 48.6754 18.1291 53.375 21.35 53.375C24.5709 53.375 27.2789 48.316 30.5 48.316C33.7211 48.316 36.4289 53.375 39.65 53.375C42.8708 53.375 45.5955 48.6754 48.8 48.316C51.6106 48.0009 53.375 50.8455 53.375 50.8455" stroke="#D7DE27" stroke-opacity="0.5" stroke-width="2" stroke-linecap="round" stroke-linejoin="round"/>
<path d="M36 25H26C24.3431 25 23 26.3431 23 28V38C23 39.6569 24.3431 41 26 41H36C37.6569 41 39 39.6569 39 38V28C39 26.3431 37.6569 25 36 25Z" fill="#D7DE27"/>
</svg>
