<svg width="16" height="16" viewBox="0 0 16 16" fill="none" xmlns="http://www.w3.org/2000/svg">
<path fill-rule="evenodd" clip-rule="evenodd" d="M10.529 0.666687C10.805 0.666687 11.029 0.890687 11.029 1.16669L11.0293 1.73189C12.0027 1.79863 12.8112 2.13205 13.3833 2.70542C14.008 3.33275 14.3367 4.23475 14.3334 5.31675V11.3988C14.3334 13.6201 12.9227 15.0001 10.6527 15.0001H5.01401C2.74401 15.0001 1.33334 13.6008 1.33334 11.3481V5.31542C1.33334 3.22022 2.59138 1.87531 4.64313 1.73212L4.64354 1.16669C4.64354 0.890687 4.86754 0.666687 5.14354 0.666687C5.41954 0.666687 5.64354 0.890687 5.64354 1.16669L5.64334 1.71935H10.0287L10.029 1.16669C10.029 0.890687 10.253 0.666687 10.529 0.666687ZM13.3333 6.60269H2.33334V11.3481C2.33334 13.0588 3.28534 14.0001 5.01401 14.0001H10.6527C12.3813 14.0001 13.3334 13.0761 13.3334 11.3988L13.3333 6.60269ZM10.8008 10.7976C11.0768 10.7976 11.3008 11.0216 11.3008 11.2976C11.3008 11.5736 11.0768 11.7976 10.8008 11.7976C10.5248 11.7976 10.2981 11.5736 10.2981 11.2976C10.2981 11.0216 10.5188 10.7976 10.7948 10.7976H10.8008ZM7.84248 10.7976C8.11848 10.7976 8.34248 11.0216 8.34248 11.2976C8.34248 11.5736 8.11848 11.7976 7.84248 11.7976C7.56648 11.7976 7.33981 11.5736 7.33981 11.2976C7.33981 11.0216 7.56048 10.7976 7.83648 10.7976H7.84248ZM4.87794 10.7976C5.15394 10.7976 5.37794 11.0216 5.37794 11.2976C5.37794 11.5736 5.15394 11.7976 4.87794 11.7976C4.60194 11.7976 4.37461 11.5736 4.37461 11.2976C4.37461 11.0216 4.59594 10.7976 4.87194 10.7976H4.87794ZM10.8008 8.20642C11.0768 8.20642 11.3008 8.43042 11.3008 8.70642C11.3008 8.98242 11.0768 9.20642 10.8008 9.20642C10.5248 9.20642 10.2981 8.98242 10.2981 8.70642C10.2981 8.43042 10.5188 8.20642 10.7948 8.20642H10.8008ZM7.84248 8.20642C8.11848 8.20642 8.34248 8.43042 8.34248 8.70642C8.34248 8.98242 8.11848 9.20642 7.84248 9.20642C7.56648 9.20642 7.33981 8.98242 7.33981 8.70642C7.33981 8.43042 7.56048 8.20642 7.83648 8.20642H7.84248ZM4.87794 8.20642C5.15394 8.20642 5.37794 8.43042 5.37794 8.70642C5.37794 8.98242 5.15394 9.20642 4.87794 9.20642C4.60194 9.20642 4.37461 8.98242 4.37461 8.70642C4.37461 8.43042 4.59594 8.20642 4.87194 8.20642H4.87794ZM10.0287 2.71935H5.64334L5.64354 3.36069C5.64354 3.63669 5.41954 3.86069 5.14354 3.86069C4.86754 3.86069 4.64354 3.63669 4.64354 3.36069L4.64319 2.73449C3.1497 2.85995 2.33334 3.76526 2.33334 5.31542V5.60269H13.3333L13.3334 5.31542C13.336 4.49209 13.1147 3.85209 12.6753 3.41209C12.2897 3.02529 11.7259 2.79429 11.0296 2.73481L11.029 3.36069C11.029 3.63669 10.805 3.86069 10.529 3.86069C10.253 3.86069 10.029 3.63669 10.029 3.36069L10.0287 2.71935Z" fill="#615E69"/>
</svg>
