<svg width="16" height="16" viewBox="0 0 16 16" fill="none" xmlns="http://www.w3.org/2000/svg">
<g clip-path="url(#clip0_32_455)">
<path fill-rule="evenodd" clip-rule="evenodd" d="M11.5 6.5H4.5C4.224 6.5 4 6.2765 4 6C4 5.724 4.224 5.5 4.5 5.5H11.5C11.776 5.5 12 5.724 12 6C12 6.2765 11.776 6.5 11.5 6.5ZM10.5 9.5H5.5C5.224 9.5 5 9.2765 5 9C5 8.7235 5.224 8.5 5.5 8.5H10.5C10.776 8.5 11 8.7235 11 9C11 9.2765 10.776 9.5 10.5 9.5ZM8 0C3.582 0 0 3.1345 0 7C0 9.2095 1.1725 11.177 3 12.4595V16L6.5045 13.8735C6.9895 13.9535 7.4885 14 8 14C12.418 14 16 10.866 16 7C16 3.1345 12.418 0 8 0Z" fill="#018C79"/>
</g>
<defs>
<clipPath id="clip0_32_455">
<rect width="16" height="16" fill="white"/>
</clipPath>
</defs>
</svg>
