<svg width="60" height="60" viewBox="0 0 60 60" fill="none" xmlns="http://www.w3.org/2000/svg">
<path d="M17.5 44.9957C12.0624 44.9655 9.11765 44.7242 7.1967 42.8032C5 40.6065 5 37.071 5 30V20C5 12.9289 5 9.3934 7.1967 7.1967C9.3934 5 12.9289 5 20 5H40C47.071 5 50.6065 5 52.8032 7.1967C55 9.3934 55 12.9289 55 20V30C55 37.071 55 40.6065 52.8032 42.8032C50.9787 44.628 48.2302 44.937 43.2992 44.9892L41.25 44.9957" stroke="#80C1B9" stroke-width="2"/>
<path d="M22.5 15H37.5" stroke="#80C1B9" stroke-width="2" stroke-linecap="round"/>
<path d="M17.5 23.75H42.5" stroke="#80C1B9" stroke-width="2" stroke-linecap="round"/>
<path d="M27.2263 34.8635C28.8243 33.5018 31.1748 33.5018 32.773 34.8635C33.4577 35.4473 34.3093 35.8 35.206 35.8715C37.2993 36.0385 38.9613 37.7005 39.1283 39.7935C39.1998 40.6905 39.5525 41.542 40.136 42.2268C41.498 43.825 41.498 46.1755 40.136 47.7735C39.5525 48.4583 39.1998 49.3098 39.1283 50.2068C38.9613 52.2998 37.2993 53.9618 35.206 54.1288C34.3093 54.2005 33.4577 54.553 32.773 55.1368C31.1748 56.4985 28.8243 56.4985 27.2263 55.1368C26.5413 54.553 25.69 54.2005 24.793 54.1288C22.6999 53.9618 21.0379 52.2998 20.8709 50.2068C20.7993 49.3098 20.4466 48.4583 19.863 47.7735C18.5011 46.1755 18.5011 43.825 19.863 42.2268C20.4466 41.542 20.7993 40.6905 20.8709 39.7935C21.0379 37.7005 22.6999 36.0385 24.793 35.8715C25.69 35.8 26.5413 35.4473 27.2263 34.8635Z" stroke="white" stroke-width="2"/>
<path d="M26.25 45.5L28.3927 47.5L33.75 42.5" stroke="white" stroke-width="2" stroke-linecap="round" stroke-linejoin="round"/>
</svg>
