<svg width="48" height="49" viewBox="0 0 48 49" fill="none" xmlns="http://www.w3.org/2000/svg">
<g clip-path="url(#clip0_709_278)">
<path d="M46.4459 33.1392V21.0387L47.2004 20.6405C47.6909 20.3855 47.9999 19.8799 48.0059 19.3265C48.0119 18.7744 47.7127 18.2629 47.2281 17.9967L24.6606 5.92174C24.2092 5.67424 23.6632 5.6757 23.2087 5.9262L0.764902 18.0162C0.287105 18.2825 -0.00834846 18.7879 -0.00534846 19.3362C-0.00234846 19.8845 0.299152 20.3862 0.782948 20.6473L10.6447 25.8965C10.5209 26.1148 10.4444 26.3638 10.4444 26.6323V39.3253C10.4445 39.5369 10.4893 39.7462 10.5759 39.9393C10.6625 40.1324 10.7889 40.305 10.9469 40.4458C11.2725 40.7345 14.3895 43.2628 23.9197 43.2628C33.4162 43.2628 36.6172 40.8733 36.951 40.601C37.2997 40.3168 37.5015 39.8908 37.5015 39.4393V26.4207C37.5015 26.21 37.4572 26.0097 37.3792 25.8282L43.446 22.6234V33.1475C42.5565 33.668 41.9535 34.6227 41.9535 35.7267C41.9535 37.3835 43.2967 38.7267 44.9535 38.7267C46.6102 38.7267 47.9535 37.3835 47.9535 35.7267C47.9535 34.6159 47.3422 33.6574 46.4459 33.1392ZM34.5014 38.5797C33.3224 39.1467 30.2024 40.2627 23.9197 40.2627C17.5972 40.2627 14.5477 39.0747 13.4444 38.5032V27.3875L23.1854 32.573C23.404 32.6912 23.6486 32.7531 23.8972 32.753C24.1392 32.7532 24.3776 32.6942 24.5917 32.5812L34.5014 27.347V38.5797ZM23.9092 29.5536L4.6154 19.3085L23.9429 8.95029L43.3304 19.2785L23.9092 29.5536Z" fill="#018C79"/>
</g>
<defs>
<clipPath id="clip0_709_278">
<rect width="48" height="48" fill="white" transform="translate(0 0.5)"/>
</clipPath>
</defs>
</svg>
