<svg width="60" height="60" viewBox="0 0 60 60" fill="none" xmlns="http://www.w3.org/2000/svg">
<g clip-path="url(#clip0_26_266)">
<path d="M44.8743 20.8135C46.2257 22.7119 47.2939 24.8242 48.018 27.0899C46.931 26.3058 45.6458 25.5815 44.174 24.9306C43.3942 24.5853 42.5719 24.2661 41.7156 23.9728L40.1328 25.5553C39.7732 25.9163 39.3157 26.1608 38.8123 26.2604L36.3272 26.7533C36.6988 29.0631 36.8926 31.5059 36.8926 34.0132C36.8926 36.8853 36.6388 39.6732 36.1532 42.2739C33.1051 42.8945 29.7529 43.2212 26.278 43.2212C22.8032 43.2212 19.4518 42.8945 16.4031 42.2739C15.9185 39.6732 15.6647 36.8853 15.6647 34.0132C15.6647 31.1411 15.9185 28.354 16.4031 25.753C19.4519 25.1329 22.8032 24.8052 26.278 24.8052C28.5173 24.8052 30.7041 24.9423 32.7921 25.2043C32.6409 24.7753 32.603 24.3081 32.6949 23.8468L33.053 22.0423C30.8709 21.7736 28.5978 21.6333 26.2777 21.6333C23.1267 21.6333 20.0584 21.8899 17.1926 22.3805C17.7009 20.603 18.3286 18.9508 19.0702 17.4693C21.0617 13.484 23.6896 11.1988 26.2777 11.1988C28.8666 11.1988 31.4939 13.4838 33.4863 17.4693C33.7613 18.0183 34.02 18.591 34.2632 19.185L36.6731 16.7748C35.9439 15.2069 35.1141 13.8091 34.2002 12.6188C35.7588 13.1977 37.2374 13.9441 38.6143 14.8334L40.9034 12.5442C36.734 9.6952 31.6973 8.02692 26.2779 8.02692C11.9499 8.02705 0.292236 19.6849 0.292236 34.0132C0.292236 48.3424 11.9499 60 26.2784 60C40.6077 60 52.2654 48.3424 52.2654 34.0132C52.2654 28.2223 50.3604 22.868 47.1451 18.5431L44.8743 20.8135ZM18.3566 12.619C16.3446 15.2409 14.7373 18.8546 13.7182 23.1168C11.7946 23.6085 10.0012 24.2147 8.38321 24.9306C6.91125 25.5815 5.62659 26.3057 4.53954 27.0899C6.67307 20.4059 11.8099 15.0506 18.3566 12.619ZM9.66632 27.8318C10.7124 27.3686 11.843 26.9562 13.0423 26.5944C12.6844 28.9373 12.4923 31.4249 12.4923 34.0133C12.4923 36.6018 12.6844 39.0896 13.0423 41.4332C11.843 41.0706 10.7124 40.6582 9.66632 40.1958C5.72501 38.4515 3.46399 36.1993 3.46399 34.0133C3.46412 31.8283 5.72514 29.575 9.66632 27.8318ZM8.38334 43.0968C10.0012 43.8122 11.7947 44.4187 13.7183 44.9096C14.7374 49.1724 16.3448 52.7863 18.3567 55.408C11.8099 52.9764 6.6732 47.6214 4.53967 40.9372C5.62659 41.7215 6.91138 42.4453 8.38334 43.0968ZM26.2784 56.8276C23.6902 56.8276 21.0623 54.5427 19.0709 50.5581C18.3292 49.0756 17.7014 47.4243 17.1932 45.6463C20.059 46.1376 23.1273 46.3939 26.2784 46.3939C29.4299 46.3939 32.4979 46.1376 35.3643 45.6463C34.8561 47.4247 34.2278 49.0759 33.4869 50.5581C31.4944 54.5423 28.8671 56.8276 26.2784 56.8276ZM34.2008 55.4084C36.212 52.7867 37.8197 49.1728 38.8391 44.91C40.763 44.4192 42.556 43.8126 44.174 43.0972C45.6458 42.4456 46.931 41.7219 48.018 40.9377C45.8838 47.6217 40.7477 52.9766 34.2008 55.4084ZM42.8904 40.1958C41.8451 40.6582 40.7142 41.0706 39.5154 41.4332C39.8728 39.0894 40.0645 36.6017 40.0645 34.0133C40.0645 31.425 39.8728 28.9373 39.5154 26.5944C40.7142 26.9562 41.8451 27.3686 42.8904 27.8318C46.8327 29.575 49.093 31.8283 49.093 34.0132C49.0929 36.1992 46.8325 38.4515 42.8904 40.1958Z" fill="#80C1B9"/>
<path d="M59.4398 8.00586L51.7024 0.268145C51.3445 -0.0893816 50.7657 -0.0893816 50.409 0.268145L48.5949 2.08174C48.2381 2.43901 48.2381 3.01741 48.5949 3.37519L48.8391 3.61918L45.8804 5.89493L40.7439 6.68425C40.4037 6.73669 40.1222 6.97642 40.0146 7.30385C39.9074 7.63128 39.9935 7.99152 40.2371 8.23499L43.9683 11.9659L35.3255 20.6088C35.1975 20.7367 35.1101 20.8997 35.0752 21.0775L34.4621 24.1717C34.4021 24.4711 34.4964 24.7809 34.7124 24.9959C34.9286 25.2118 35.237 25.3061 35.5368 25.2463L38.6316 24.633C38.8088 24.5978 38.9723 24.5107 39.1001 24.3823L47.7425 15.7407L51.4734 19.4716C51.717 19.7154 52.0772 19.8014 52.4052 19.6937C52.7318 19.5867 52.9718 19.3041 53.0245 18.9636L53.8138 13.8275L56.0901 10.8684L56.3341 11.1126C56.6911 11.4704 57.2699 11.4704 57.6271 11.1126L59.4406 9.29931C59.7971 8.94178 59.7971 8.36274 59.4398 8.00586Z" fill="white"/>
</g>
<defs>
<clipPath id="clip0_26_266">
<rect width="60" height="60" fill="white"/>
</clipPath>
</defs>
</svg>
