<svg width="60" height="60" viewBox="0 0 60 60" fill="none" xmlns="http://www.w3.org/2000/svg">
<path fill-rule="evenodd" clip-rule="evenodd" d="M36.7302 12.5H23.2702C20.3978 12.5159 17.6495 13.6721 15.6297 15.7144C13.6099 17.7567 12.4842 20.5177 12.5002 23.39V36.61C12.4842 39.4823 13.6099 42.2432 15.6297 44.2855C17.6495 46.3277 20.3978 47.4842 23.2702 47.5H36.7302C39.6025 47.4842 42.3507 46.3277 44.3705 44.2855C46.3905 42.2432 47.516 39.4823 47.5002 36.61V23.39C47.516 20.5177 46.3905 17.7567 44.3705 15.7144C42.3507 13.6721 39.6025 12.5159 36.7302 12.5Z" stroke="#D7DE27" stroke-opacity="0.5" stroke-width="2" stroke-linecap="round" stroke-linejoin="round"/>
<path d="M20.0002 22.5C18.9647 22.5 18.1252 23.3395 18.1252 24.375C18.1252 25.4105 18.9647 26.25 20.0002 26.25V22.5ZM30.0002 26.25C31.0357 26.25 31.8752 25.4105 31.8752 24.375C31.8752 23.3395 31.0357 22.5 30.0002 22.5V26.25ZM28.1252 24.375C28.1252 25.4105 28.9647 26.25 30.0002 26.25C31.0357 26.25 31.8752 25.4105 31.8752 24.375H28.1252ZM31.8752 20C31.8752 18.9645 31.0357 18.125 30.0002 18.125C28.9647 18.125 28.1252 18.9645 28.1252 20H31.8752ZM30.0002 22.5C28.9647 22.5 28.1252 23.3395 28.1252 24.375C28.1252 25.4105 28.9647 26.25 30.0002 26.25V22.5ZM38.7502 26.25C39.7857 26.25 40.6252 25.4105 40.6252 24.375C40.6252 23.3395 39.7857 22.5 38.7502 22.5V26.25ZM38.7502 22.5C37.7147 22.5 36.8752 23.3395 36.8752 24.375C36.8752 25.4105 37.7147 26.25 38.7502 26.25V22.5ZM40.0002 26.25C41.0357 26.25 41.8752 25.4105 41.8752 24.375C41.8752 23.3395 41.0357 22.5 40.0002 22.5V26.25ZM40.2844 25.4527C40.8797 24.6055 40.6754 23.4361 39.8282 22.8408C38.9807 22.2455 37.8114 22.4498 37.2159 23.2971L40.2844 25.4527ZM28.1842 33.1958C27.3947 33.866 27.2982 35.0492 27.9684 35.8385C28.6387 36.628 29.8219 36.7245 30.6112 36.0542L28.1842 33.1958ZM23.2493 37.2507C22.4212 37.8725 22.2541 39.048 22.876 39.876C23.4978 40.704 24.6732 40.8713 25.5012 40.2493L23.2493 37.2507ZM30.6422 36.0175C31.4167 35.3302 31.4874 34.1453 30.8002 33.3708C30.1132 32.596 28.9279 32.5252 28.1534 33.2125L30.6422 36.0175ZM27.9227 35.7728C28.5622 36.5872 29.7407 36.7292 30.5554 36.09C31.3699 35.4505 31.5119 34.272 30.8727 33.4573L27.9227 35.7728ZM27.9649 28.6168C27.5462 27.6695 26.4389 27.2415 25.4919 27.6603C24.5448 28.079 24.1166 29.1862 24.5354 30.1332L27.9649 28.6168ZM30.9022 33.506C30.2842 32.675 29.1097 32.5025 28.2787 33.1205C27.4479 33.7385 27.2752 34.913 27.8932 35.744L30.9022 33.506ZM34.7382 41.652C35.6504 42.1418 36.7872 41.7995 37.2772 40.887C37.7669 39.9747 37.4247 38.838 36.5124 38.348L34.7382 41.652ZM20.0002 26.25H30.0002V22.5H20.0002V26.25ZM31.8752 24.375V20H28.1252V24.375H31.8752ZM30.0002 26.25H38.7502V22.5H30.0002V26.25ZM38.7502 26.25H40.0002V22.5H38.7502V26.25ZM37.2159 23.2971C34.6379 26.9667 31.6029 30.293 28.1842 33.1958L30.6112 36.0542C34.2727 32.9455 37.5232 29.383 40.2844 25.4527L37.2159 23.2971ZM25.5012 40.2493C26.7782 39.2903 28.6327 37.8002 30.6422 36.0175L28.1534 33.2125C26.2177 34.9298 24.4422 36.3547 23.2493 37.2507L25.5012 40.2493ZM30.8727 33.4573C29.7059 31.971 28.7292 30.3448 27.9649 28.6168L24.5354 30.1332C25.4257 32.1465 26.5637 34.041 27.9227 35.7728L30.8727 33.4573ZM27.8932 35.744C29.7137 38.1917 32.0507 40.2088 34.7382 41.652L36.5124 38.348C34.3097 37.1653 32.3944 35.512 30.9022 33.506L27.8932 35.744Z" fill="#D7DE27"/>
</svg>
