<svg width="59" height="60" viewBox="0 0 59 60" fill="none" xmlns="http://www.w3.org/2000/svg">
<path d="M29.5 33.9589C33.898 33.9589 37.4632 30.3333 37.4632 25.8608C37.4632 21.3883 33.898 17.7627 29.5 17.7627C25.1021 17.7627 21.5369 21.3883 21.5369 25.8608C21.5369 30.3333 25.1021 33.9589 29.5 33.9589Z" fill="#D7DE27" fill-opacity="0.75"/>
<path d="M42.1075 49.6771C41.9692 41.9408 36.3826 35.7158 29.4999 35.7158C22.6172 35.7158 17.0288 41.9427 16.8923 49.6771H42.1075Z" fill="#D7DE27" fill-opacity="0.75"/>
<path d="M9.47125 22.4915C12.7756 22.4915 15.4542 19.7674 15.4542 16.4071C15.4542 13.0468 12.7756 10.3228 9.47125 10.3228C6.16695 10.3228 3.48828 13.0468 3.48828 16.4071C3.48828 19.7674 6.16695 22.4915 9.47125 22.4915Z" fill="#D7DE27" fill-opacity="0.5"/>
<path d="M18.9445 34.3003C18.8413 28.4896 14.6449 23.8115 9.47134 23.8115C4.29778 23.8115 0.10325 28.4896 0 34.3003H18.9445Z" fill="#D7DE27" fill-opacity="0.5"/>
<path d="M49.5269 22.4915C52.8312 22.4915 55.5099 19.7674 55.5099 16.4071C55.5099 13.0468 52.8312 10.3228 49.5269 10.3228C46.2226 10.3228 43.5439 13.0468 43.5439 16.4071C43.5439 19.7674 46.2226 22.4915 49.5269 22.4915Z" fill="#D7DE27" fill-opacity="0.5"/>
<path d="M59.0001 34.3003C58.8968 28.4896 54.7005 23.8115 49.5269 23.8115C44.3533 23.8115 40.1588 28.4896 40.0537 34.3003H59.0001Z" fill="#D7DE27" fill-opacity="0.5"/>
</svg>
