<svg width="60" height="60" viewBox="0 0 60 60" fill="none" xmlns="http://www.w3.org/2000/svg">
<g clip-path="url(#clip0_24_188)">
<path d="M52.9135 10.6473L43.2931 20.2677C47.5231 26.0382 47.5231 33.9615 43.2922 39.7317L52.9135 49.3527C62.3329 38.2149 62.3329 21.7848 52.9135 10.6473Z" fill="#D7DE27"/>
<path d="M20.268 16.707C23.0748 14.6436 26.4519 13.5267 30.0009 13.5267C33.5496 13.5267 36.9264 14.643 39.7326 16.7067L49.3545 7.0851C43.9473 2.5029 37.1682 0 30 0C22.8318 0 16.0527 2.50289 10.6455 7.08539L20.268 16.707Z" fill="#D7DE27" fill-opacity="0.5"/>
<path d="M39.7323 43.2927C36.9258 45.3567 33.5484 46.473 29.9991 46.473C26.4507 46.473 23.0739 45.357 20.2674 43.2933L10.6455 52.9149C16.0527 57.4968 22.8318 60 30 60C37.1682 60 43.9473 57.4968 49.3548 52.9149L39.7323 43.2927Z" fill="#D7DE27" fill-opacity="0.5"/>
<path d="M16.7074 39.7326C14.6431 36.9261 13.5271 33.549 13.5271 30.0003C13.5271 26.4513 14.644 23.0745 16.7074 20.2677L7.08699 10.6473C-2.33271 21.7848 -2.33271 38.2149 7.08699 49.353L16.7074 39.7326Z" fill="#D7DE27"/>
</g>
<defs>
<clipPath id="clip0_24_188">
<rect width="60" height="60" fill="white"/>
</clipPath>
</defs>
</svg>
