<svg width="60" height="61" viewBox="0 0 60 61" fill="none" xmlns="http://www.w3.org/2000/svg">
<path fill-rule="evenodd" clip-rule="evenodd" d="M29.7166 36.535L29.9989 36.5351L30.6303 36.5372C35.4568 36.569 46.4866 37.0566 46.4866 44.5325C46.4866 51.9593 35.8413 52.4437 30.7056 52.4753L28.8028 52.4753C23.9761 52.4435 12.9441 51.9566 12.9441 44.49C12.9441 37.0538 23.9761 36.5688 28.8028 36.5372L29.4343 36.5351C29.5323 36.535 29.6264 36.535 29.7166 36.535ZM29.7166 40.285C23.7766 40.285 16.6941 41.015 16.6941 44.49C16.6941 47.8863 23.3539 48.6804 29.1737 48.7254L29.7166 48.7275C35.6566 48.7275 42.7366 48 42.7366 44.5325C42.7366 41.0225 35.6566 40.285 29.7166 40.285ZM29.7166 10.5C36.0166 10.5 41.1391 15.625 41.1391 21.9225C41.1391 28.22 36.0166 33.345 29.7166 33.345H29.6491C26.5991 33.335 23.7416 32.14 21.6016 29.98C19.4566 27.8225 18.2841 24.9575 18.2965 21.915C18.2965 15.625 23.4191 10.5 29.7166 10.5ZM29.7166 14.25C25.4866 14.25 22.0465 17.6925 22.0465 21.9225C22.0391 23.9725 22.8241 25.89 24.2616 27.3375C25.6991 28.785 27.6141 29.5875 29.6541 29.595L29.7166 31.47V29.595C33.9466 29.595 37.3891 26.155 37.3891 21.9225C37.3891 17.6925 33.9466 14.25 29.7166 14.25Z" fill="white"/>
<path d="M56.9443 43.0042C56.9443 40.7767 55.6718 37.9317 49.6143 37.0242C48.5818 36.8917 47.6318 37.5742 47.4793 38.5992C47.3268 39.6267 48.0343 40.5792 49.0568 40.7342C51.8018 41.1442 53.1943 41.9092 53.1943 43.0042C53.1943 43.3467 53.1943 44.0592 51.4993 44.7042C50.5318 45.0717 50.0443 46.1567 50.4143 47.1242C50.6993 47.8717 51.4118 48.3317 52.1668 48.3317C52.3893 48.3317 52.6143 48.2917 52.8343 48.2092C56.4093 46.8467 56.9443 44.3642 56.9443 43.0042Z" fill="#80C1B9"/>
<path d="M52.7903 23.3925C52.7903 18.935 49.5978 15.175 45.2028 14.4525C44.1753 14.29 43.2178 14.975 43.0478 15.9975C42.8803 17.02 43.5728 17.985 44.5928 18.1525C47.1703 18.575 49.0403 20.78 49.0403 23.3875C49.0353 26.0175 47.0728 28.2725 44.4728 28.6375C43.4453 28.78 42.7328 29.7275 42.8753 30.755C43.0078 31.6925 43.8103 32.37 44.7303 32.37C44.8153 32.37 44.9028 32.365 44.9903 32.3525C49.4278 31.73 52.7803 27.88 52.7903 23.3925Z" fill="#80C1B9"/>
<path d="M7.8875 40.7346C8.91 40.5796 9.6175 39.6271 9.465 38.5996C9.31 37.5746 8.365 36.8946 7.3325 37.0246C1.2725 37.9321 0 40.7796 0 43.0046C0 44.3621 0.535 46.8446 4.1125 48.2096C4.3325 48.2921 4.5575 48.3321 4.78 48.3321C5.535 48.3321 6.2475 47.8721 6.5325 47.1246C6.9025 46.1571 6.415 45.0721 5.4475 44.7046C3.75 44.0571 3.75 43.3471 3.75 43.0046C3.75 41.9096 5.1425 41.1446 7.8875 40.7346Z" fill="#80C1B9"/>
<path d="M12.354 18.1529C13.374 17.9854 14.0665 17.0204 13.899 15.9979C13.729 14.9804 12.7965 14.2879 11.744 14.4529C7.349 15.1754 4.1565 18.9354 4.1565 23.3979C4.1665 27.8804 7.5165 31.7304 11.954 32.3529C12.0415 32.3654 12.129 32.3704 12.214 32.3704C13.134 32.3704 13.9365 31.6929 14.069 30.7554C14.2115 29.7279 13.499 28.7804 12.4715 28.6379C9.874 28.2754 7.9115 26.0179 7.9065 23.3929C7.9065 20.7804 9.7765 18.5754 12.354 18.1529Z" fill="#80C1B9"/>
</svg>
