<svg width="28" height="28" viewBox="0 0 28 28" fill="none" xmlns="http://www.w3.org/2000/svg">
<mask id="mask0_382_670" style="mask-type:luminance" maskUnits="userSpaceOnUse" x="0" y="0" width="28" height="28">
<path d="M14 26C15.5762 26.002 17.1372 25.6926 18.5934 25.0894C20.0495 24.4862 21.3721 23.6012 22.4852 22.4852C23.6012 21.3721 24.4862 20.0495 25.0894 18.5934C25.6926 17.1372 26.002 15.5762 26 14C26.002 12.4238 25.6925 10.8628 25.0893 9.40666C24.4861 7.95049 23.6011 6.62787 22.4852 5.51481C21.3721 4.39882 20.0495 3.51381 18.5934 2.91062C17.1372 2.30743 15.5762 1.99797 14 2.00001C12.4238 1.998 10.8628 2.30748 9.40666 2.91067C7.95049 3.51385 6.62787 4.39885 5.51481 5.51481C4.39885 6.62787 3.51385 7.95049 2.91067 9.40666C2.30748 10.8628 1.998 12.4238 2.00001 14C1.99797 15.5762 2.30743 17.1372 2.91062 18.5934C3.51381 20.0495 4.39882 21.3721 5.51481 22.4852C6.62787 23.6011 7.95049 24.4861 9.40666 25.0893C10.8628 25.6925 12.4238 26.002 14 26Z" fill="white" stroke="white" stroke-width="4" stroke-linejoin="round"/>
<path d="M9.2002 14L12.8002 17.6L20.0002 10.4" stroke="black" stroke-width="4" stroke-linecap="round" stroke-linejoin="round"/>
</mask>
<g mask="url(#mask0_382_670)">
<path d="M-0.399902 -0.400024H28.4001V28.4H-0.399902V-0.400024Z" fill="#018C79"/>
</g>
</svg>
