<svg width="48" height="49" viewBox="0 0 48 49" fill="none" xmlns="http://www.w3.org/2000/svg">
<path d="M42.4744 11.0769L24.4744 5.07686C24.1665 4.97422 23.8335 4.97422 23.5256 5.07686L5.52562 11.0769C5.22695 11.1764 4.96717 11.3675 4.78309 11.6229C4.59902 11.8783 4.49998 12.1852 4.5 12.5V27.5C4.5 27.8978 4.65804 28.2793 4.93934 28.5607C5.22064 28.842 5.60218 29 6 29C6.39782 29 6.77936 28.842 7.06066 28.5607C7.34196 28.2793 7.5 27.8978 7.5 27.5V14.5812L13.7981 16.6794C12.1248 19.3827 11.5927 22.6397 12.3186 25.7351C13.0446 28.8304 14.9692 31.5112 17.67 33.1887C14.295 34.5125 11.3775 36.9069 9.24375 40.1806C9.13278 40.3456 9.0557 40.5309 9.01699 40.7259C8.97828 40.9209 8.97871 41.1216 9.01826 41.3164C9.05782 41.5112 9.1357 41.6962 9.24738 41.8607C9.35906 42.0251 9.50231 42.1657 9.66882 42.2743C9.83532 42.3829 10.0217 42.4574 10.2173 42.4933C10.4128 42.5292 10.6135 42.5259 10.8077 42.4836C11.0019 42.4412 11.1858 42.3607 11.3487 42.2467C11.5115 42.1327 11.65 41.9874 11.7563 41.8194C14.5819 37.4844 19.0444 35 24 35C28.9556 35 33.4181 37.4844 36.2438 41.8194C36.4638 42.1464 36.8036 42.3736 37.1898 42.452C37.5761 42.5304 37.9776 42.4537 38.3077 42.2384C38.6378 42.0231 38.8699 41.6865 38.9539 41.3015C39.0378 40.9164 38.9668 40.5138 38.7562 40.1806C36.6225 36.9069 33.6937 34.5125 30.33 33.1887C33.0282 31.5113 34.951 28.8322 35.6768 25.7391C36.4027 22.646 35.8722 19.3913 34.2019 16.6887L42.4744 13.9325C42.7731 13.833 43.033 13.642 43.2171 13.3866C43.4012 13.1311 43.5003 12.8242 43.5003 12.5094C43.5003 12.1945 43.4012 11.8876 43.2171 11.6322C43.033 11.3767 42.7731 11.1857 42.4744 11.0862V11.0769ZM33 23C33.0004 24.4228 32.6634 25.8255 32.0168 27.0929C31.3701 28.3603 30.4322 29.4564 29.2799 30.2911C28.1276 31.1258 26.7938 31.6754 25.388 31.8949C23.9821 32.1143 22.5443 31.9973 21.1925 31.5534C19.8406 31.1096 18.6133 30.3515 17.6111 29.3415C16.609 28.3314 15.8606 27.0982 15.4273 25.7429C14.9941 24.3876 14.8884 22.9489 15.1188 21.5448C15.3493 20.1407 15.9094 18.8113 16.7531 17.6656L23.5256 19.9156C23.8335 20.0183 24.1665 20.0183 24.4744 19.9156L31.2469 17.6656C32.3865 19.2106 33.0009 21.0802 33 23ZM24 16.9194L10.7437 12.5L24 8.08061L37.2562 12.5L24 16.9194Z" fill="#003A71"/>
</svg>
