<svg width="48" height="49" viewBox="0 0 48 49" fill="none" xmlns="http://www.w3.org/2000/svg">
<path d="M37.2581 11.2419C35.5198 9.48825 33.4522 8.09525 31.1741 7.14285C28.8959 6.19044 26.4521 5.69738 23.983 5.69197C21.5138 5.68656 19.0678 6.16892 16.7856 7.11134C14.5033 8.05376 12.4296 9.43769 10.6836 11.1837C8.93766 12.9297 7.55373 15.0033 6.61131 17.2856C5.66889 19.5679 5.18653 22.0138 5.19194 24.483C5.19735 26.9522 5.69041 29.396 6.64281 31.6741C7.59522 33.9522 8.98822 36.0198 10.7418 37.7581C12.4802 39.5117 14.5477 40.9047 16.8258 41.8571C19.104 42.8095 21.5478 43.3026 24.017 43.308C26.4862 43.3134 28.9321 42.8311 31.2144 41.8886C33.4966 40.9462 35.5703 39.5623 37.3163 37.8163C39.0623 36.0703 40.4462 33.9967 41.3886 31.7144C42.331 29.4321 42.8134 26.9862 42.808 24.517C42.8026 22.0478 42.3095 19.604 41.3571 17.3259C40.4047 15.0478 39.0117 12.9802 37.2581 11.2419ZM19.6331 25.25H28.3668L31.6068 32.2719C31.0182 31.8398 30.3459 31.5352 29.633 31.3776C28.92 31.2201 28.182 31.213 27.4661 31.3568C26.7502 31.5006 26.0722 31.7922 25.4754 32.2128C24.8785 32.6335 24.376 33.1741 24 33.8C23.6239 33.1741 23.1214 32.6335 22.5246 32.2128C21.9277 31.7922 21.2497 31.5006 20.5338 31.3568C19.818 31.213 19.0799 31.2201 18.367 31.3776C17.654 31.5352 16.9817 31.8398 16.3931 32.2719L19.6331 25.25ZM20.3268 23.75L24 15.7906L27.6731 23.75H20.3268ZM24.75 36.5C24.75 35.5054 25.145 34.5516 25.8483 33.8483C26.5516 33.1451 27.5054 32.75 28.5 32.75C29.4945 32.75 30.4483 33.1451 31.1516 33.8483C31.8549 34.5516 32.25 35.5054 32.25 36.5V39.6556C29.9424 40.914 27.3761 41.6242 24.75 41.7312V36.5ZM15.75 36.5C15.75 35.5054 16.145 34.5516 16.8483 33.8483C17.5516 33.1451 18.5054 32.75 19.5 32.75C20.4945 32.75 21.4483 33.1451 22.1516 33.8483C22.8549 34.5516 23.25 35.5054 23.25 36.5V41.7312C20.6238 41.6242 18.0575 40.914 15.75 39.6556V36.5ZM36.1968 36.6969C35.4453 37.4486 34.6263 38.1296 33.75 38.7312V33.5C33.7495 33.3912 33.7259 33.2838 33.6806 33.185L24.6806 13.685C24.6205 13.5551 24.5244 13.4451 24.4038 13.3681C24.2832 13.291 24.1431 13.25 24 13.25C23.8568 13.25 23.7167 13.291 23.5961 13.3681C23.4755 13.4451 23.3795 13.5551 23.3193 13.685L14.3193 33.185C14.274 33.2838 14.2504 33.3912 14.25 33.5V38.7312C13.3769 38.1291 12.561 37.4482 11.8125 36.6969C9.3998 34.2845 7.7567 31.2108 7.09094 27.8646C6.42518 24.5184 6.76667 21.0499 8.07222 17.8977C9.37777 14.7456 11.5887 12.0514 14.4255 10.1558C17.2623 8.2603 20.5975 7.24856 24.0093 7.24856C27.4211 7.24856 30.7563 8.2603 33.5931 10.1558C36.4299 12.0514 38.6409 14.7456 39.9464 17.8977C41.252 21.0499 41.5935 24.5184 40.9277 27.8646C40.262 31.2108 38.6189 34.2845 36.2062 36.6969H36.1968Z" fill="#FF0"/>
</svg>
