<svg width="48" height="49" viewBox="0 0 48 49" fill="none" xmlns="http://www.w3.org/2000/svg">
<path d="M28.5 15.5H39V18.5H28.5V15.5ZM28.5 23H39V26H28.5V23ZM28.5 30.5H39V33.5H28.5V30.5ZM9 15.5H19.5V18.5H9V15.5ZM9 23H19.5V26H9V23ZM9 30.5H19.5V33.5H9V30.5Z" fill="#FFA500"/>
<path d="M42 8H6C5.20459 8.00079 4.44199 8.31712 3.87956 8.87956C3.31712 9.44199 3.00079 10.2046 3 11V38C3.00079 38.7954 3.31712 39.558 3.87956 40.1204C4.44199 40.6829 5.20459 40.9992 6 41H42C42.7954 40.9992 43.558 40.6829 44.1204 40.1204C44.6829 39.558 44.9992 38.7954 45 38V11C44.9992 10.2046 44.6829 9.44199 44.1204 8.87956C43.558 8.31712 42.7954 8.00079 42 8ZM6 11H22.5V38H6V11ZM25.5 38V11H42V38H25.5Z" fill="#FFA500"/>
</svg>
