<svg width="56" height="56" viewBox="0 0 56 56" fill="none" xmlns="http://www.w3.org/2000/svg">
<path d="M15.9985 22.2285C16.8598 21.192 17.7677 20.1951 18.7195 19.241C19.6686 18.2857 20.6612 17.3746 21.694 16.5105C20.614 16.618 19.2375 17.3465 18.0345 18.5555C16.8325 19.7625 16.1055 21.1445 15.9985 22.2285ZM22.174 13.5C20.4345 13.674 18.217 14.8485 16.2805 16.794C14.344 18.7375 13.173 20.964 13 22.71C14.3861 21.0401 15.8483 19.4349 17.382 17.8995C18.9107 16.36 20.5098 14.8919 22.174 13.5ZM22.545 22.56C22.8081 22.1741 22.9286 21.7087 22.8858 21.2436C22.843 20.7785 22.6396 20.3429 22.3105 20.0115C22.1253 19.8254 21.9052 19.6777 21.6628 19.577C21.4204 19.4762 21.1605 19.4243 20.898 19.4243C20.6355 19.4243 20.3756 19.4762 20.1332 19.577C19.8908 19.6777 19.6707 19.8254 19.4855 20.0115C19.1108 20.3884 18.9006 20.8983 18.9008 21.4297C18.901 21.9611 19.1115 22.4709 19.4865 22.8475C19.8151 23.1774 20.249 23.3817 20.7126 23.4247C21.1763 23.4677 21.6403 23.3468 22.024 23.083L22.67 23.8405C18.225 28.381 15.333 33.003 15.333 35.3345C15.333 35.7805 15.3885 36.142 15.757 36.4975C17.231 37.9215 19.1515 38.6975 21.2715 38.853C23.879 39.0445 26.7785 38.3005 29.4855 36.6985C29.6335 36.7455 30.225 36.9935 30.796 36.903C30.796 36.903 31.4935 37.406 32.0805 37.756L32.08 37.76V38.9325C32.08 39.8295 33.167 40.5555 34.5075 40.5555C35.5925 40.5555 36.5005 40.0775 36.812 39.421C36.853 39.422 36.9735 39.427 36.9735 39.427C37.155 40.5865 38.1445 41.4755 39.35 41.4755H41.62V42.5H43V28.3065H41.62V29.331H39.35C38.1445 29.331 37.077 30.2645 36.8965 31.424L36.333 30.962C36.333 30.6165 36.1085 30.0495 36.1085 30.0495C37.703 27.332 38.4525 24.422 38.254 21.805C38.0765 19.463 37.373 17.5805 35.8055 16.18C34.217 14.762 28.687 17.895 23.3 23.2095L22.545 22.56ZM31.8105 36.7045C33.377 35.8695 35.4415 33.29 36.103 31.743L36.795 32.2285V37.0555C36.178 36.314 35.376 36.1365 34.508 36.1365C33.559 36.1365 32.7455 36.5045 32.3465 37.036C32.1595 36.9235 31.8105 36.7045 31.8105 36.7045ZM32.58 37.9555V37.76C32.58 37.2285 33.372 36.6365 34.5075 36.6365C35.644 36.6365 36.436 37.229 36.436 37.76V37.956C35.9925 37.565 35.2975 37.3085 34.5075 37.3085C33.7175 37.3085 33.0235 37.565 32.58 37.9555ZM42.12 28.8065H42.5V38.192H42.12V28.8065ZM39.35 29.831H41.465V37.154H37.436V31.755C37.4365 30.6945 38.295 29.831 39.35 29.831ZM25.6615 28.337L26.6165 29.74C22.3145 33.764 18.532 35.8665 16.858 35.8665C16.652 35.8665 16.493 35.8305 16.4315 35.7695C16.3695 35.707 16.3325 35.545 16.3325 35.335C16.3325 33.5335 18.7355 29.3035 23.321 24.605L26.115 27.8825L25.6615 28.337ZM34.7485 16.843C34.955 16.843 35.114 16.8795 35.1755 16.9405C35.2375 17.003 35.2745 17.165 35.2745 17.375C35.2745 19.0565 33.1815 22.8535 29.1765 27.17L27.7785 26.212L27.3255 26.667L24.061 23.8625C28.741 19.257 32.955 16.843 34.7485 16.843Z" fill="#018C79"/>
<circle cx="28" cy="28" r="27.5" stroke="#018C79"/>
</svg>
