<svg width="60" height="60" viewBox="0 0 60 60" fill="none" xmlns="http://www.w3.org/2000/svg">
<path d="M30 27.5C32.7614 27.5 35 25.2614 35 22.5C35 19.7386 32.7614 17.5 30 17.5C27.2386 17.5 25 19.7386 25 22.5C25 25.2614 27.2386 27.5 30 27.5Z" stroke="white" stroke-width="2"/>
<path d="M40 37.5C40 40.2615 40 42.5 30 42.5C20 42.5 20 40.2615 20 37.5C20 34.7385 24.4771 32.5 30 32.5C35.5228 32.5 40 34.7385 40 37.5Z" stroke="white" stroke-width="2"/>
<path d="M7.5 26.0417C7.5 18.0477 7.5 14.0507 8.4438 12.706C9.38758 11.3613 13.1458 10.0749 20.6623 7.50198L22.0943 7.0118C26.0125 5.6706 27.9715 5 30 5C32.0285 5 33.9875 5.6706 37.9058 7.0118L39.3377 7.50198C46.8542 10.0749 50.6125 11.3613 51.5562 12.706C52.5 14.0507 52.5 18.0477 52.5 26.0417C52.5 27.249 52.5 28.5585 52.5 29.9785C52.5 36.2407 50.408 41.071 47.5 44.7602M7.9821 35C10.1257 45.746 18.941 51.2822 24.7464 53.8182C26.55 54.606 27.4518 55 30 55C32.5482 55 33.45 54.606 35.2535 53.8182C36.699 53.1867 38.331 52.3695 40 51.332" stroke="#80C1B9" stroke-width="2" stroke-linecap="round"/>
</svg>
